<svg width="82" height="35" viewBox="0 0 82 35" fill="none" xmlns="http://www.w3.org/2000/svg">
<path d="M32.4915 33.61C32.377 33.7995 32.1482 33.9132 31.9193 33.8753C24.5634 32.3212 19.6488 29.2539 17.093 24.6357C15.529 30.0879 10.0423 33.3825 0.553313 34.4439C0.36258 34.4818 0.133702 34.3681 0.0574085 34.1786C-0.133324 33.8753 0.171848 33.4963 0.667752 33.4204C8.97733 31.9042 13.7393 28.7232 15.0363 23.9155H1.16366C0.934778 23.9155 0.782192 23.8018 0.667752 23.6122C0.515166 23.2711 0.896631 22.9678 1.39254 22.9678H15.227C15.3033 22.4371 15.3414 21.9444 15.3414 21.5274V19.0287C15.3414 18.6118 15.6848 18.3464 16.1044 18.4222C18.0467 18.8013 19.0003 19.1804 19.0003 19.5973C19.0003 19.8627 18.5044 20.128 17.5508 20.3176V21.5306C17.5508 21.8338 17.5126 22.3266 17.4745 22.971H28.5274L30.1296 21.003C30.3584 20.7377 30.7018 20.6998 30.9688 20.9651C31.6936 21.6095 32.3421 22.2539 32.8348 22.8952C32.9492 23.0468 32.9492 23.2742 32.8729 23.4638L32.7585 23.6533C32.6441 23.8428 32.4915 23.9186 32.3007 23.9186H17.8941C20.7519 27.8577 25.6696 30.3564 32.6822 31.3798C33.3307 31.4935 33.5596 32.1 33.1781 32.5928C32.9111 32.934 32.6822 33.2751 32.4915 33.6163V33.61ZM33.14 17.8568C33.0255 18.0463 32.8729 18.1601 32.6441 18.1601H0.629606C0.400727 18.1601 0.209995 18.0463 0.133702 17.8189C0.019262 17.5157 0.362581 17.2124 0.858485 17.2124H15.4559V12.5531H3.60185C3.41112 12.5531 3.22039 12.4394 3.1441 12.212C2.99151 11.9087 3.37298 11.6055 3.90703 11.6055H15.4559V7.28732H2.22858C1.9997 7.28732 1.84711 7.1736 1.73268 6.98407C1.58009 6.64291 1.96155 6.33966 2.45746 6.33966H19.1879C20.1797 4.59598 21.092 2.62802 21.8931 0.394719C22.0075 0.0914697 22.3127 -0.0601548 22.6179 0.0156574C24.5602 0.622156 25.5138 1.15284 25.5138 1.71827C25.5138 2.02152 24.9798 2.21105 23.9117 2.24896C22.9962 3.65149 21.8168 5.01295 20.5198 6.33966H27.685L29.0201 4.56123C29.249 4.25799 29.6686 4.22008 29.9357 4.48542C30.5079 5.01611 31.08 5.62261 31.6522 6.30176C31.8048 6.49129 31.843 6.68082 31.7285 6.87035L31.6904 6.98407C31.576 7.1736 31.4234 7.28732 31.1945 7.28732H17.6652V11.6055H26.6964L28.1078 9.86494C28.3367 9.56169 28.68 9.52378 28.947 9.75122C29.5574 10.3198 30.1296 10.8884 30.6986 11.5296C30.8512 11.7192 30.8893 11.9845 30.7367 12.1741L30.6223 12.3257C30.5079 12.4773 30.3934 12.5531 30.2027 12.5531H17.6652V17.2124H28.9852L30.5492 15.3203C30.7781 15.0549 31.1595 15.017 31.4265 15.2824C32.075 15.9268 32.6854 16.5333 33.1431 17.0987C33.2957 17.2882 33.3339 17.4778 33.2194 17.6673L33.1431 17.8568H33.14ZM11.9496 6.1912C11.3774 6.1912 10.9959 5.85004 10.8052 5.16773C10.4237 3.7273 9.54635 2.36584 8.13811 1.11494C7.87108 0.887499 7.83294 0.622156 7.98552 0.394719C8.09996 0.205188 8.36699 0.129376 8.63401 0.205188C11.8351 1.494 13.3991 3.00708 13.3991 4.75077C13.3991 5.69842 12.9032 6.1912 11.9496 6.1912V6.1912Z" fill="#6D6D6D"/>
<path d="M60.1288 12.5057C60.0144 12.6574 59.8999 12.7332 59.7092 12.7332H54.7152V15.6109C56.2029 16.2553 57.4585 17.0513 58.4504 17.92C59.5566 18.8676 60.0907 19.7363 60.0907 20.5324C60.0907 21.4042 59.671 21.8591 58.87 21.8591C58.3359 21.8591 57.9544 21.5179 57.7256 20.8356C57.1534 19.3194 56.1234 17.92 54.7152 16.6691V34.4313C54.7152 34.7724 54.4863 34.9999 54.143 34.9999H53.113C52.7697 34.9999 52.5408 34.7724 52.5408 34.4313V18.6781C51.3201 22.0865 49.6449 25.3433 47.6613 28.4105C47.4705 28.6759 47.1653 28.7517 46.8983 28.5621C46.6694 28.4484 46.5932 28.1073 46.7839 27.804C49.1458 23.5617 50.9768 18.5644 52.3469 12.73H47.4673C47.2385 12.73 47.0477 12.5784 46.9714 12.351C46.857 12.0477 47.2003 11.7824 47.6962 11.7824H52.5376V5.57523L52.0799 5.65104C50.4777 5.91639 49.0313 6.21964 47.6962 6.48498C47.4673 6.52288 47.2385 6.40917 47.124 6.21964C46.9714 5.91639 47.2385 5.61314 47.6581 5.49942C51.584 4.58967 54.8614 3.30402 57.4903 1.71196C57.6429 1.59825 57.8718 1.59825 58.0625 1.71196C59.4739 2.62171 60.1956 3.34193 60.1956 3.75574C60.1956 3.98317 59.9667 4.1348 59.5089 4.1348C59.1656 4.1348 58.8223 4.05899 58.4027 3.98317C56.9531 4.43805 55.6974 4.7792 54.7056 5.04454V11.7855H56.5335L57.7923 10.045C58.0212 9.70384 58.4408 9.66593 58.746 9.96918C59.3182 10.6136 59.8522 11.2201 60.2337 11.7476C60.3481 11.9371 60.3481 12.1646 60.2337 12.3541L60.1193 12.5057H60.1288ZM81.281 14.2494C81.1666 14.401 81.014 14.4769 80.8614 14.4769H68.0569L67.9425 14.6664C67.1033 16.4448 66.1909 18.1506 65.161 19.7774L65.2754 19.8532C65.3517 19.8911 65.3898 19.8911 65.428 19.929H69.8879V15.6867C69.8879 15.3455 70.155 15.0802 70.5364 15.1181C72.555 15.2697 73.5468 15.5351 73.5468 16.0278C73.5468 16.3311 73.0509 16.6343 72.021 16.9755V19.929H76.7861L77.8161 18.7539C78.0068 18.4886 78.3501 18.4886 78.6171 18.6781C79.7234 19.55 80.2924 20.1565 80.2924 20.4565C80.2924 20.6082 80.2161 20.7219 80.0254 20.8356L79.148 21.3663V28.4863C79.148 30.3027 78.2325 31.3261 76.4046 31.4398C76.0995 31.4778 75.9087 31.2503 75.8324 30.985C75.6417 30.3027 74.8788 29.8478 73.6231 29.5445C73.3942 29.4687 73.2035 29.2792 73.2035 29.0139C73.2035 28.7106 73.5087 28.5211 73.8902 28.559C74.7294 28.6348 75.416 28.6727 75.9469 28.6727C76.7098 28.6727 77.0913 28.3315 77.0913 27.5734V20.8704H72.021V34.4281C72.021 34.7693 71.7921 34.9967 71.4488 34.9967H70.457C70.1136 34.9967 69.8848 34.7693 69.8848 34.4281V20.8704H65.2722V31.1713C65.2722 31.5125 65.0433 31.7399 64.7 31.7399H63.7845C63.4412 31.7399 63.2123 31.5125 63.2123 31.1713V22.5761C61.6483 24.582 59.8204 26.4394 57.6874 28.2557C57.4585 28.4832 57.1152 28.4453 56.8863 28.2178C56.7338 28.0283 56.7719 27.763 57.0008 27.5355C60.6215 23.8618 63.5556 19.5057 65.7268 14.4705H58.8286C58.5998 14.4705 58.409 14.3568 58.3327 14.1294C58.2183 13.8261 58.5616 13.5229 59.0575 13.5229H66.1083C66.566 12.4236 67.0238 11.1 67.5578 9.47009C67.6723 9.16684 67.9774 9.01521 68.3208 9.09103C70.1868 9.69752 71.1023 10.1903 71.1023 10.6073C71.1023 10.9105 70.5682 11.138 69.427 11.2517C69.2744 11.5549 69.1218 11.9719 68.893 12.5026L68.4733 13.526H77.4282L78.8397 11.7855C79.0685 11.5202 79.4119 11.4823 79.6789 11.7097C80.2892 12.2404 80.8233 12.809 81.3541 13.4502C81.5067 13.6398 81.5067 13.8672 81.3923 14.0567L81.2779 14.2463L81.281 14.2494ZM77.5459 3.45565C77.2025 3.45565 76.9355 3.41774 76.7066 3.41774C75.4478 4.4033 74.1159 5.27198 72.7044 6.06801C76.2489 7.69797 77.9623 9.02153 77.9623 10.045C77.9623 10.8031 77.619 11.1822 76.8942 11.1822C76.6272 11.1822 76.2838 11.0306 75.9405 10.7652C74.3384 9.4385 72.6631 8.26657 70.9847 7.28101C67.9361 8.87306 64.8113 10.1587 61.5339 11.0685C61.2668 11.1443 61.038 11.0306 60.9235 10.8031C60.7709 10.5378 60.9617 10.2345 61.3813 10.0829C64.468 8.94572 67.0969 7.66007 69.1568 6.29545L68.8135 6.10592C66.9475 5.08245 64.7731 4.17586 62.5638 3.34193C62.2205 3.22821 62.0679 2.84915 62.2205 2.5459C62.2968 2.35637 62.5638 2.28056 62.7927 2.35637C65.4979 3.1903 68.1268 4.1348 70.759 5.19617C72.4755 4.05899 74.0364 2.84915 75.4859 1.44662C75.6385 1.295 75.8293 1.25709 76.0581 1.37081C77.6984 2.05312 78.4963 2.62171 78.4963 3.07658C78.4963 3.30402 78.1912 3.45565 77.5427 3.45565H77.5459Z" fill="#6D6D6D"/>
</svg>
