<svg width="39" height="14" viewBox="0 0 39 14" fill="none" xmlns="http://www.w3.org/2000/svg">
<path d="M15.953 13.1696C15.953 13.315 15.8417 13.4066 15.6796 13.4066H11.8014C11.6361 13.4066 11.528 13.2992 11.528 13.1349C11.528 12.9896 11.6392 12.898 11.8014 12.898C12.1479 12.879 12.4244 12.8253 12.6597 12.7527C12.9712 12.6611 13.1365 12.3357 13.1365 11.7545V7.97651C13.1365 7.01306 13.0252 6.34022 12.825 5.97696C12.5134 5.44943 12.0207 5.17777 11.3627 5.17777C10.1738 5.17777 9.33138 5.9043 8.83865 7.37633V11.7545C8.83865 12.301 8.98488 12.6263 9.24236 12.7369C9.46171 12.8285 9.77323 12.8822 10.1738 12.9011C10.3391 12.9011 10.4472 13.0085 10.4472 13.1728C10.4472 13.3181 10.3359 13.4097 10.1738 13.4097H6.27965C6.11435 13.4097 6.00627 13.3023 6.00627 13.1381C6.00627 12.9928 6.11753 12.9011 6.27965 12.9011C6.57211 12.8822 6.8296 12.8474 7.02987 12.7906C7.41451 12.6832 7.61478 12.3357 7.61478 11.7545V7.95755C7.61478 6.95936 7.52259 6.28652 7.32232 5.958C7.01079 5.43048 6.55304 5.17777 5.89501 5.17777C4.68704 5.17777 3.84781 5.9043 3.35191 7.35737V11.7545C3.35191 12.301 3.47906 12.6263 3.75562 12.7369C3.97497 12.8285 4.26742 12.8822 4.67114 12.9011C4.83644 12.9011 4.94453 13.0085 4.94453 13.1728C4.94453 13.3181 4.83326 13.4097 4.67114 13.4097H0.79291C0.627608 13.4097 0.519531 13.3023 0.519531 13.1381C0.519531 12.9928 0.630787 12.9011 0.79291 12.9011C1.10444 12.8822 1.34286 12.8474 1.52406 12.7906C1.92777 12.6832 2.12804 12.3357 2.12804 11.7545V6.32127C2.12804 5.74005 1.98181 5.41152 1.68935 5.30412C1.52405 5.25042 1.2316 5.21252 0.811992 5.19356C0.627617 5.19356 0.519531 5.08616 0.519531 4.9219C0.519531 4.9219 0.630787 4.65024 0.79291 4.65024C1.59717 4.61234 2.30924 4.54284 2.95137 4.43228C3.13574 4.39438 3.29786 4.52389 3.29786 4.7229V6.19492C3.99404 5.01351 4.90638 4.41333 6.09528 4.41333C7.53849 4.41333 8.38089 5.06721 8.63838 6.39392C9.29641 5.06721 10.285 4.41333 11.6202 4.41333C13.448 4.41333 14.3635 5.50313 14.3635 7.68273V11.7545C14.3635 12.3357 14.5288 12.6642 14.8753 12.7716C15.1137 12.8632 15.4602 12.898 15.9371 12.898H15.9561V13.1696H15.953Z" fill="#6D6D6D"/>
<path d="M21.0004 13.4033H17.1953C17.03 13.4033 16.9219 13.2959 16.9219 13.1317C16.9219 12.9864 17.0332 12.8948 17.1953 12.8948C17.4687 12.8758 17.7071 12.8411 17.9073 12.7842C18.3111 12.6768 18.5113 12.3293 18.5113 11.7481V6.31488C18.5113 5.73365 18.3651 5.40513 18.0726 5.29773C17.9264 5.24403 17.634 5.20613 17.2143 5.18717C17.049 5.18717 16.9219 5.07977 16.9219 4.91551C16.9219 4.91551 17.0332 4.64385 17.1953 4.64385C17.9455 4.60595 18.6766 4.53645 19.3728 4.40694C19.5731 4.38799 19.7193 4.5175 19.7193 4.69755V11.7481C19.7193 12.2946 19.8655 12.6199 20.1389 12.7305C20.3582 12.8221 20.6507 12.8758 20.9972 12.8948C21.1625 12.8948 21.2706 13.0022 21.2706 13.1664C21.2706 13.3117 21.1593 13.4033 20.9972 13.4033H21.0004ZM19.1153 2.37264C18.5113 2.37264 18.1998 2.08203 18.1998 1.4629C18.1998 0.843762 18.5113 0.537354 19.1153 0.537354C19.3728 0.537354 19.5921 0.62896 19.7733 0.809014C19.9577 1.00802 20.0467 1.21019 20.0467 1.4629C20.0467 2.08203 19.7352 2.37264 19.1153 2.37264V2.37264Z" fill="#6D6D6D"/>
<path d="M33.5868 13.7193H30.3316C30.1663 13.7193 30.0582 13.6119 30.0582 13.4477C30.0582 13.3023 30.1695 13.2297 30.3316 13.2107C30.7703 13.1918 31.0087 13.0654 31.0087 12.8285C31.0087 12.718 30.8625 12.4652 30.5891 12.1209L28.046 9.08529L26.9493 9.99503V12.0672C26.9493 12.6137 27.0764 12.9391 27.3689 13.0496C27.5882 13.1412 27.8998 13.1949 28.3194 13.2139C28.4847 13.2139 28.5928 13.3213 28.5928 13.4856C28.5928 13.6309 28.4815 13.7225 28.3194 13.7225H24.4062C24.2409 13.7225 24.1328 13.6151 24.1328 13.4508C24.1328 13.3055 24.2441 13.2139 24.4062 13.2139C24.6986 13.1949 24.9561 13.1602 25.1564 13.1033C25.541 12.9959 25.7413 12.6485 25.7413 12.0672V2.58122C25.7413 2.01895 25.5951 1.69043 25.3217 1.58303C25.1564 1.52933 24.8639 1.49142 24.4443 1.47247C24.279 1.47247 24.1519 1.36507 24.1519 1.20081V1.18186C24.1519 1.0176 24.2631 0.910196 24.4253 0.910196C25.1946 0.872289 25.9257 0.783842 26.6028 0.692236C26.8031 0.65433 26.9493 0.802795 26.9493 0.982849V9.23375L30.1123 6.59928C30.4969 6.27076 30.6972 6.05279 30.6972 5.87274C30.6972 5.67373 30.3856 5.54422 29.7817 5.50947C29.6164 5.49052 29.5083 5.38312 29.5083 5.23781C29.5083 5.07355 29.6195 4.96615 29.7817 4.96615H33.1831C33.3484 4.96615 33.4564 5.07671 33.4564 5.23781V5.25677C33.4564 5.40207 33.3643 5.49368 33.218 5.52843C32.614 5.62003 31.9751 5.9454 31.2789 6.51083L28.882 8.45668L31.8066 11.9282C32.4297 12.6737 33.0305 13.1097 33.6186 13.2013C33.7457 13.2202 33.857 13.3276 33.857 13.4729C33.857 13.6182 33.7457 13.7288 33.5836 13.7288L33.5868 13.7193Z" fill="#6D6D6D"/>
<path d="M38.7269 13.7192H34.9218C34.7565 13.7192 34.6484 13.6118 34.6484 13.4476C34.6484 13.3023 34.7597 13.2107 34.9218 13.2107C35.1952 13.1917 35.4336 13.157 35.6339 13.1001C36.0376 12.9927 36.2379 12.6452 36.2379 12.064V6.6308C36.2379 6.04957 36.0916 5.72105 35.7992 5.61365C35.653 5.55995 35.3605 5.52204 34.9409 5.50309C34.7756 5.50309 34.6484 5.39569 34.6484 5.23143C34.6484 5.23143 34.7597 4.95977 34.9218 4.95977C35.672 4.92186 36.4032 4.85237 37.0994 4.72286C37.2996 4.7039 37.4458 4.83342 37.4458 5.01347V12.064C37.4458 12.6105 37.5921 12.9359 37.8655 13.0464C38.0848 13.138 38.3773 13.1917 38.7238 13.2107C38.8891 13.2107 38.9971 13.3181 38.9971 13.4823C38.9971 13.6276 38.8859 13.7192 38.7238 13.7192H38.7269ZM36.8419 2.68856C36.2379 2.68856 35.9264 2.39795 35.9264 1.77881C35.9264 1.15968 36.2379 0.853271 36.8419 0.853271C37.0994 0.853271 37.3187 0.944878 37.4999 1.12493C37.6843 1.32394 37.7733 1.52611 37.7733 1.77881C37.7733 2.39795 37.4617 2.68856 36.8419 2.68856V2.68856Z" fill="#6D6D6D"/>
</svg>
