<svg width="41" height="20" viewBox="0 0 41 20" fill="none" xmlns="http://www.w3.org/2000/svg">
<path d="M19.0881 14.1894C18.9578 14.1894 18.8242 14.1673 18.6939 14.082C18.0359 13.6682 17.1363 13.2544 16.1921 12.8595C15.9728 13.406 15.7534 13.9272 15.5119 14.4074C14.6122 16.2837 13.2739 18.2011 12.066 19.5121C11.9547 19.6416 11.8466 19.6858 11.7353 19.6858C11.5605 19.6858 11.4047 19.5563 11.4047 19.3573C11.4047 19.2467 11.4493 19.1172 11.5573 18.9877C12.5905 17.6799 13.4678 15.9994 14.3452 14.1894C14.609 13.665 14.8284 13.0554 15.0477 12.4236C13.9288 12.0098 12.8543 11.6813 12.085 11.4854C11.1854 11.2675 9.97743 11.0495 8.68363 10.939C8.26719 11.8771 7.93659 12.6195 7.65049 13.1849C6.83988 14.8875 4.95162 16.6312 3.21596 16.6312C2.62469 16.6312 2.03024 16.4132 1.54705 15.911C1.04161 15.4087 0.822266 14.8433 0.822266 14.2526C0.822266 12.6384 2.51343 11.0021 4.29042 10.4146C5.36488 10.045 6.55061 9.82705 7.93342 9.82705C8.6137 8.21288 9.29397 6.4692 9.9965 4.72235C10.041 4.59284 10.0633 4.46017 10.0633 4.37488C10.0633 4.13481 9.93292 4.0053 9.64683 4.0053C9.55782 4.0053 9.44973 4.0053 9.33847 4.04952C8.85529 4.16008 8.15276 4.28959 7.40572 4.28959C7.25314 4.28959 7.09737 4.26748 6.94478 4.26748C5.56197 4.16008 4.6846 3.54726 4.42075 2.82705C4.37625 2.76071 4.37626 2.69753 4.37626 2.6312C4.37626 2.39113 4.55109 2.26161 4.74818 2.2395C4.87851 2.2395 5.03428 2.32795 5.12011 2.47957C5.38396 2.89338 5.86714 3.11134 7.03061 3.15557C7.11962 3.15557 7.1832 3.17768 7.27221 3.17768C8.34667 3.17768 9.35755 2.91549 10.7849 2.43535C10.8961 2.39113 11.0265 2.36901 11.1345 2.36901C11.5732 2.36901 11.8593 2.67542 11.8593 3.08923C11.8593 3.19979 11.8371 3.3293 11.7926 3.4367C11.5287 4.20114 10.2794 7.25259 9.1382 9.87127C10.0823 9.95972 11.0932 10.1113 12.2344 10.3956C13.4647 10.702 14.4946 10.9832 15.372 11.2896C15.7026 10.0892 15.9442 8.93309 16.0968 8.1497C16.208 7.66956 16.4687 7.47371 16.7325 7.47371C17.0631 7.47371 17.3906 7.758 17.3906 8.10548V8.17181C17.238 9.28373 16.9519 10.5283 16.58 11.7066C17.6131 12.0983 18.4682 12.4931 19.2788 12.8848C19.6285 13.0364 19.762 13.2765 19.762 13.5166C19.762 13.8672 19.4759 14.1926 19.0817 14.1926L19.0881 14.1894ZM4.86579 11.3338C2.67237 12.1204 1.94759 13.1881 1.94759 14.1483C1.94759 14.6506 2.07793 15.1529 2.49754 15.4119C2.67238 15.5224 2.91397 15.5856 3.17781 15.5856C4.16644 15.5856 5.59376 14.758 6.51563 12.9259C6.84623 12.272 7.15141 11.6402 7.48201 10.8979C6.60464 10.8979 5.74953 11.0274 4.86898 11.3338H4.86579Z" fill="#6D6D6D"/>
<path d="M39.769 8.31398C39.2413 8.57616 38.2781 9.0342 37.1782 9.44801C37.6614 10.4304 38.1446 11.4096 38.5165 12.1962C39.3494 13.4818 38.4497 14.1389 37.814 13.8988C37.0224 13.5924 35.1596 13.1344 33.8404 12.9828C33.6433 12.9385 33.532 12.7648 33.532 12.5911C33.532 12.3952 33.6846 12.1994 33.9929 12.1994H34.0597C34.6287 12.1994 35.9702 12.351 36.6505 12.4173H36.7172C36.9143 12.4173 37.0892 12.3289 37.0892 12.133C37.0892 12.0667 37.0669 11.9814 37.0224 11.893C36.9112 11.675 36.5392 10.8663 36.056 9.82075C35.5951 9.97237 35.1119 10.105 34.651 10.1903C33.9929 10.3198 33.3985 10.3862 32.874 10.3862H32.8517C31.3163 10.3862 30.3055 9.8397 29.8445 8.81624C29.7555 8.59828 29.7142 8.38031 29.7142 8.11813C29.7142 7.42003 30.0639 6.61452 30.5248 6.04593C29.5584 6.02382 28.5062 5.78374 27.6288 4.93402C27.5398 4.84557 27.5176 4.76028 27.5176 4.64972C27.5176 4.47598 27.6702 4.28013 27.8895 4.28013C28.0008 4.28013 28.1088 4.32436 28.2201 4.40965C28.5698 4.64972 29.4058 4.93402 30.4358 4.93402C30.919 4.93402 31.4467 4.86768 31.9934 4.71606C32.3654 4.6055 32.8931 4.40965 33.4653 4.15062C32.9376 2.90604 32.5211 1.83835 32.2795 1.33609C32.235 1.22553 32.2128 1.14024 32.2128 1.02968C32.2128 0.682211 32.4989 0.442139 32.8263 0.442139C33.0456 0.442139 33.2872 0.552698 33.4176 0.833835C33.7259 1.48772 34.1201 2.53329 34.5588 3.64837C35.5697 3.16822 36.5329 2.66596 37.0383 2.36272C37.1686 2.29638 37.3244 2.25216 37.4325 2.25216C37.8044 2.25216 38.0905 2.55856 38.0905 2.88393C38.0905 3.10189 37.9602 3.31985 37.6963 3.47147C37.2354 3.73365 36.2054 4.27698 35.042 4.80134C35.2613 5.36678 35.4807 5.91326 35.7 6.37129C35.9861 6.95883 36.2913 7.63483 36.6219 8.31398C37.5438 7.94439 38.4211 7.52743 39.1682 7.20207C39.3207 7.13573 39.432 7.11362 39.5623 7.11362C39.912 7.11362 40.1123 7.39791 40.1314 7.70116C40.1314 7.94123 40.001 8.18131 39.7594 8.31082L39.769 8.31398ZM37.2227 18.4349C36.4534 18.4791 35.7731 18.5234 35.1596 18.5234C33.2491 18.5234 32.022 18.2612 30.8999 17.6957C29.5839 17.0198 28.5952 15.8194 28.5952 14.5116C28.5952 14.2937 28.6175 14.0536 28.6842 13.8356C28.751 13.6177 28.9258 13.5071 29.1007 13.5071C29.2755 13.5071 29.4503 13.6366 29.4503 13.8546V13.9652C29.4281 14.0536 29.4281 14.1389 29.4281 14.2273C29.4281 15.0992 30.2832 16.2111 31.7773 16.846C32.6324 17.2156 33.621 17.3262 34.5651 17.3262C35.5093 17.3262 36.3644 17.2377 37.0669 17.1745H37.1559C37.6614 17.1745 37.903 17.5031 37.903 17.8063C37.903 18.1096 37.6836 18.416 37.2227 18.4381V18.4349ZM34.5683 6.61452C34.349 6.15649 34.1519 5.69846 33.9548 5.26254C33.2523 5.52472 32.5497 5.7869 31.914 5.8943H31.8695C31.8472 5.93853 31.825 5.96064 31.7805 5.98275C31.3195 6.26705 30.6837 7.09466 30.6837 7.88122C30.706 8.07706 30.7282 8.27291 30.8363 8.44665C31.1002 8.99313 31.825 9.27427 32.8104 9.27427C33.3381 9.27427 33.9071 9.18582 34.5238 9.0342C34.8544 8.94575 35.2041 8.83835 35.557 8.72779C35.2486 8.02968 34.8989 7.30947 34.5683 6.61136V6.61452Z" fill="#6D6D6D"/>
</svg>
